<svg width="120" height="40" viewBox="0 0 120 40" version="1.1" xmlns="http://www.w3.org/2000/svg" xmlns:xlink="http://www.w3.org/1999/xlink">
<g id="Canvas" fill="none">
<g id="app_store">
<g id="Group">
<g id="Group_2">
<g id="Group_3">
<g id="Vector">
<path d="M 110.135 0.00013L 9.53468 0.00013C 9.16798 0.00013 8.80568 0.00013 8.43995 0.00213C 8.1338 0.00413 7.83009 0.00994 7.521 0.01483C 6.84951 0.0227318 6.17961 0.0818063 5.5171 0.19154C 4.85552 0.303663 4.21467 0.515046 3.61622 0.81854C 3.0185 1.1246 2.47235 1.5223 1.99757 1.9972C 1.5203 2.47077 1.12246 3.01815 0.81935 3.61829C 0.5154 4.21724 0.304641 4.85907 0.19435 5.52161C 0.0830109 6.18332 0.0230984 6.85265 0.01515 7.52361C 0.00587 7.83021 0.00489 8.13783 0 8.44447L 0 31.5587C 0.00489 31.8692 0.00587 32.17 0.01515 32.4806C 0.0231008 33.1516 0.0830134 33.8209 0.19435 34.4825C 0.304336 35.1455 0.515108 35.7877 0.81935 36.3868C 1.12233 36.985 1.52022 37.5302 1.99757 38.0011C 2.47054 38.4781 3.01705 38.8761 3.61622 39.1798C 4.21467 39.4841 4.85545 39.6968 5.5171 39.8106C 6.17972 39.9195 6.84956 39.9786 7.521 39.9874C 7.83009 39.9942 8.1338 39.9981 8.43995 39.9981C 8.80567 40.0001 9.168 40.0001 9.53468 40.0001L 110.135 40.0001C 110.494 40.0001 110.859 40.0001 111.219 39.9981C 111.523 39.9981 111.836 39.9942 112.141 39.9874C 112.811 39.9791 113.479 39.92 114.141 39.8106C 114.804 39.696 115.448 39.4834 116.049 39.1798C 116.647 38.8759 117.193 38.478 117.666 38.0011C 118.142 37.5284 118.541 36.9836 118.848 36.3868C 119.15 35.7872 119.358 35.1451 119.467 34.4825C 119.578 33.8208 119.64 33.1516 119.652 32.4806C 119.656 32.17 119.656 31.8692 119.656 31.5587C 119.664 31.1954 119.664 30.8341 119.664 30.4649L 119.664 9.53626C 119.664 9.17005 119.664 8.80677 119.656 8.44447C 119.656 8.13783 119.656 7.83021 119.652 7.52357C 119.64 6.85255 119.578 6.18337 119.467 5.52157C 119.358 4.85941 119.149 4.21763 118.848 3.61825C 118.23 2.41533 117.252 1.43616 116.049 0.81845C 115.448 0.515697 114.804 0.30437 114.141 0.19145C 113.48 0.0812328 112.811 0.0221378 112.141 0.01469C 111.836 0.00981 111.523 0.00395 111.219 0.002C 110.859 0 110.494 0 110.135 0L 110.135 0.00013Z" fill="#A6A6A6"/>
</g>
<g id="Vector_2">
<path d="M 7.57182 38.25C 7.26714 38.25 6.96982 38.2461 6.66753 38.2393C 6.04131 38.2311 5.41656 38.1766 4.79839 38.0762C 4.22198 37.9769 3.66359 37.7923 3.14165 37.5283C 2.62449 37.2665 2.1528 36.9233 1.74465 36.5117C 1.33059 36.105 0.985867 35.6332 0.72414 35.1152C 0.459529 34.5938 0.276403 34.0349 0.18114 33.458C 0.0782643 32.8381 0.0226044 32.2113 0.01464 31.583C 0.00830001 31.3721 -2.02751e-08 30.6699 -2.02751e-08 30.6699L -2.02751e-08 7.56934C -2.02751e-08 7.56934 0.00884002 6.87793 0.01469 6.6748C 0.0223158 6.04748 0.0776522 5.42165 0.18022 4.80273C 0.275659 4.22425 0.458927 3.66375 0.72368 3.14063C 0.984445 2.62294 1.32725 2.15086 1.73882 1.74268C 2.14992 1.33062 2.62312 0.985604 3.14116 0.72021C 3.6619 0.457094 4.21924 0.273733 4.79448 0.17627C 5.41468 0.0748361 6.0416 0.0199961 6.66999 0.01221L 7.57231 0L 110.341 0L 111.254 0.0127C 111.877 0.0200992 112.498 0.07445 113.112 0.17529C 113.693 0.273975 114.257 0.458616 114.783 0.72314C 115.821 1.25799 116.666 2.10416 117.198 3.14307C 117.459 3.66258 117.639 4.21851 117.733 4.79199C 117.837 5.41599 117.895 6.04674 117.907 6.6792C 117.91 6.9624 117.91 7.2666 117.91 7.56934C 117.918 7.94434 117.918 8.30127 117.918 8.66113L 117.918 29.5898C 117.918 29.9531 117.918 30.3076 117.91 30.665C 117.91 30.9902 117.91 31.2881 117.906 31.5947C 117.895 32.2159 117.837 32.8354 117.735 33.4482C 117.642 34.0293 117.46 34.5925 117.195 35.1182C 116.932 35.6306 116.589 36.0983 116.18 36.5039C 115.771 36.9177 115.299 37.2629 114.78 37.5264C 114.255 37.7924 113.693 37.9777 113.112 38.0762C 112.494 38.1772 111.869 38.2317 111.243 38.2393C 110.95 38.2461 110.644 38.25 110.346 38.25L 109.262 38.252L 7.57182 38.25Z" transform="translate(0.873016 0.875122)" fill="black"/>
</g>
</g>
<g id="&#60;Group&#62;">
<g id="&#60;Group&#62;_2">
<g id="&#60;Group&#62;_3">
<g id="&#60;Path&#62;">
<path d="M 14.7973 6.32767C 14.8081 5.49301 15.0298 4.67463 15.4418 3.94868C 15.8538 3.22273 16.4428 2.61279 17.1539 2.17561C 16.7021 1.53045 16.1062 0.999512 15.4134 0.62496C 14.7205 0.250407 13.9499 0.0425631 13.1627 0.0179335C 11.4835 -0.158327 9.85552 1.02276 8.99981 1.02276C 8.12754 1.02276 6.81004 0.0354334 5.39131 0.0646234C 4.47364 0.0942715 3.57929 0.361125 2.79541 0.839183C 2.01154 1.31724 1.36486 1.9902 0.918393 2.79249C -1.01561 6.14091 0.426982 11.062 2.27959 13.7686C 3.20649 15.0939 4.28977 16.5744 5.70722 16.5219C 7.09428 16.4643 7.61232 15.6374 9.28662 15.6374C 10.9454 15.6374 11.4314 16.5219 12.8776 16.4885C 14.366 16.4643 15.3038 15.1573 16.1981 13.8194C 16.8641 12.875 17.3766 11.8313 17.7166 10.7268C 16.8518 10.3611 16.1139 9.74894 15.5948 8.96664C 15.0757 8.18435 14.7983 7.26654 14.7973 6.32767L 14.7973 6.32767Z" transform="translate(9.97157 13.9731)" fill="white"/>
</g>
<g id="&#60;Path&#62;_2">
<path d="M 3.24656 3.49062C 4.05808 2.51641 4.45789 1.26423 4.36108 1.5686e-07C 3.12124 0.130221 1.97599 0.72278 1.1535 1.65961C 0.751355 2.11728 0.443358 2.64971 0.247113 3.22648C 0.0508672 3.80325 -0.0297777 4.41304 0.00978693 5.021C 0.629926 5.02739 1.24343 4.89297 1.80409 4.62788C 2.36476 4.3628 2.85796 3.97395 3.24656 3.49062Z" transform="translate(18.7907 8.7204)" fill="white"/>
</g>
</g>
</g>
<g id="Group_4">
<g id="Vector_3">
<path d="M 7.875 9.06155L 3.1416 9.06155L 2.00488 12.418L -1.01807e-06 12.418L 4.4834 2.04468e-07L 6.5664 2.04468e-07L 11.0498 12.418L 9.01073 12.418L 7.875 9.06155ZM 3.63183 7.51272L 7.38383 7.51272L 5.53422 2.06545L 5.48246 2.06545L 3.63183 7.51272Z" transform="translate(34.4273 18.0782)" fill="white"/>
</g>
<g id="Vector_4">
<path d="M 8.52835 4.62375C 8.52835 7.43723 7.02249 9.24484 4.75003 9.24484C 4.17438 9.27495 3.60188 9.14235 3.09808 8.86221C 2.59429 8.58207 2.17957 8.16573 1.9014 7.66084L 1.8584 7.66084L 1.8584 12.1452L 2.68555e-08 12.1452L 2.68555e-08 0.0964001L 1.79886 0.0964001L 1.79886 1.60226L 1.83304 1.60226C 2.12399 1.09979 2.54572 0.685604 3.05335 0.403758C 3.56098 0.121912 4.13553 -0.0170454 4.71585 0.00166968C 7.01366 0.00167968 8.52835 1.81808 8.52835 4.62375ZM 6.61819 4.62375C 6.61819 2.79075 5.67092 1.58566 4.22561 1.58566C 2.80569 1.58566 1.85061 2.81613 1.85061 4.62375C 1.85061 6.44797 2.80569 7.66965 4.22561 7.66965C 5.67093 7.66965 6.61819 6.47336 6.61819 4.62375Z" transform="translate(46.6313 21.3461)" fill="white"/>
</g>
<g id="Vector_5">
<path d="M 8.52835 4.62374C 8.52835 7.43722 7.02249 9.24483 4.75003 9.24483C 4.17438 9.27494 3.60188 9.14234 3.09808 8.8622C 2.59429 8.58206 2.17957 8.16572 1.9014 7.66083L 1.8584 7.66083L 1.8584 12.1452L -3.78418e-08 12.1452L -3.78418e-08 0.0963906L 1.79882 0.0963906L 1.79882 1.60225L 1.833 1.60225C 2.12396 1.09979 2.54569 0.685596 3.05332 0.403752C 3.56095 0.121908 4.1355 -0.0170482 4.71582 0.00166971C 7.0137 0.00166971 8.52835 1.81807 8.52835 4.62374ZM 6.61819 4.62374C 6.61819 2.79074 5.67092 1.58565 4.22561 1.58565C 2.80569 1.58565 1.85061 2.81612 1.85061 4.62374C 1.85061 6.44796 2.80569 7.66964 4.22561 7.66964C 5.67093 7.66964 6.6182 6.47335 6.6182 4.62374L 6.61819 4.62374Z" transform="translate(56.5962 21.3461)" fill="white"/>
</g>
<g id="Vector_6">
<path d="M 1.90237 9.16509C 2.04007 10.3965 3.23637 11.2051 4.87112 11.2051C 6.43753 11.2051 7.56448 10.3965 7.56448 9.28614C 7.56448 8.32227 6.88479 7.74514 5.27542 7.34962L 3.66605 6.96192C 1.38578 6.41114 0.327177 5.34473 0.327177 3.61426C 0.327177 1.47168 2.19437 3.44238e-07 4.84573 3.44238e-07C 7.46973 3.44238e-07 9.26858 1.47168 9.32913 3.61426L 7.45313 3.61426C 7.34083 2.375 6.31641 1.62696 4.81934 1.62696C 3.32227 1.62696 2.29786 2.3838 2.29786 3.48536C 2.29786 4.36329 2.95216 4.87989 4.55274 5.27536L 5.9209 5.6113C 8.46875 6.21384 9.52735 7.2373 9.52735 9.05368C 9.52735 11.3769 7.67676 12.832 4.7334 12.832C 1.97949 12.832 0.120118 11.4111 -2.16064e-06 9.165L 1.90237 9.16509Z" transform="translate(69.8081 17.8712)" fill="white"/>
</g>
<g id="Vector_7">
<path d="M 3.18359 8.72803e-07L 3.18359 2.14258L 4.90527 2.14258L 4.90527 3.61426L 3.18359 3.61426L 3.18359 8.60547C 3.18359 9.38086 3.52832 9.74219 4.28515 9.74219C 4.48954 9.73863 4.6936 9.72427 4.89648 9.69919L 4.89648 11.1621C 4.55621 11.2257 4.21035 11.2545 3.86425 11.248C 2.03125 11.248 1.3164 10.5595 1.3164 8.80368L 1.3164 3.61426L 5.44434e-07 3.61426L 5.44434e-07 2.14258L 1.31638 2.14258L 1.31638 8.72803e-07L 3.18359 8.72803e-07Z" transform="translate(80.1626 19.2999)" fill="white"/>
</g>
<g id="Vector_8">
<path d="M 2.44141e-06 4.63867C 2.44141e-06 1.79004 1.67773 4.09546e-07 4.29395 4.09546e-07C 6.91895 4.09546e-07 8.58887 1.79 8.58887 4.63867C 8.58887 7.49512 6.92774 9.27734 4.29395 9.27734C 1.66109 9.27734 2.44141e-06 7.49511 2.44141e-06 4.63867ZM 6.69531 4.63867C 6.69531 2.68457 5.7998 1.53125 4.29394 1.53125C 2.78808 1.53125 1.89355 2.69336 1.89355 4.63867C 1.89355 6.60058 2.78808 7.74512 4.29394 7.74512C 5.7998 7.74512 6.69527 6.60058 6.69527 4.63867L 6.69531 4.63867Z" transform="translate(86.065 21.3312)" fill="white"/>
</g>
<g id="Vector_9">
<path d="M 8.04443e-06 0.0963143L 1.77247 0.0963143L 1.77247 1.63731L 1.81547 1.63731C 1.93539 1.15603 2.21734 0.730696 2.61393 0.432811C 3.01052 0.134926 3.49756 -0.0173529 3.9932 0.00157249C 4.20737 0.000824723 4.42094 0.0240849 4.62992 0.0709141L 4.62992 1.80919C 4.35955 1.72658 4.07751 1.68864 3.79492 1.69689C 3.52495 1.68594 3.2558 1.73354 3.00595 1.83643C 2.75611 1.93931 2.53149 2.09505 2.34751 2.29294C 2.16354 2.49083 2.02457 2.72619 1.94014 2.98286C 1.85571 3.23953 1.82782 3.51143 1.8584 3.77989L 1.8584 9.15001L 4.15039e-07 9.15001L 8.04443e-06 0.0963143Z" transform="translate(96.1861 21.3462)" fill="white"/>
</g>
<g id="Vector_10">
<path d="M 8.16699 6.50586C 7.91699 8.14941 6.3164 9.27734 4.26855 9.27734C 1.63476 9.27734 -1.95557e-06 7.51269 -1.95557e-06 4.68164C -1.95557e-06 1.8418 1.64355 8.72803e-07 4.19043 8.72803e-07C 6.69531 8.72803e-07 8.27051 1.7207 8.27051 4.46582L 8.27051 5.10254L 1.87598 5.10254L 1.87598 5.21484C 1.84647 5.54804 1.88818 5.88371 1.99836 6.19955C 2.10853 6.51539 2.28466 6.80417 2.51501 7.04672C 2.74537 7.28927 3.02469 7.48003 3.33443 7.60633C 3.64418 7.73264 3.97725 7.7916 4.31153 7.77929C 4.75069 7.82044 5.1914 7.71873 5.56811 7.48929C 5.94482 7.25985 6.23741 6.91493 6.40235 6.50585L 8.16699 6.50586ZM 1.88476 3.80371L 6.41113 3.80371C 6.42781 3.50411 6.38239 3.2043 6.27772 2.92309C 6.17304 2.64189 6.01136 2.38535 5.80284 2.16958C 5.59432 1.95382 5.34345 1.78348 5.06598 1.66926C 4.78851 1.55505 4.49042 1.49942 4.19043 1.50586C 3.8878 1.50405 3.5878 1.5622 3.30776 1.67694C 3.02772 1.79168 2.77317 1.96075 2.55881 2.17438C 2.34445 2.38802 2.17453 2.64199 2.05884 2.92164C 1.94314 3.20129 1.88398 3.50108 1.88476 3.80372L 1.88476 3.80371Z" transform="translate(101.217 21.3312)" fill="white"/>
</g>
</g>
</g>
</g>
<g id="&#60;Group&#62;_4">
<g id="Group_5">
<g id="Vector_11">
<path d="M 2.15527 0.00677079C 2.54489 -0.0211884 2.93585 0.0376716 3.29996 0.179105C 3.66407 0.320537 3.99226 0.541018 4.26084 0.824643C 4.52943 1.10827 4.73172 1.44797 4.85312 1.81924C 4.97452 2.19051 5.01201 2.5841 4.96289 2.97161C 4.96289 4.87786 3.93262 5.97361 2.15527 5.97361L 1.32568e-06 5.97361L 1.32568e-06 0.00677079L 2.15527 0.00677079ZM 0.926751 5.12977L 2.05175 5.12977C 2.33016 5.14641 2.60877 5.10076 2.86731 4.99615C 3.12585 4.89154 3.35781 4.73059 3.5463 4.52502C 3.73479 4.31946 3.87508 4.07445 3.95694 3.80783C 4.0388 3.54121 4.06018 3.25969 4.01952 2.98377C 4.05723 2.70894 4.03368 2.42917 3.95056 2.1645C 3.86745 1.89984 3.72681 1.65683 3.53875 1.4529C 3.35069 1.24897 3.11984 1.08917 2.86276 0.98493C 2.60568 0.880693 2.32873 0.83461 2.05175 0.849981L 0.926751 0.849981L 0.926751 5.12977Z" transform="translate(35.6709 8.72437)" fill="white"/>
</g>
<g id="Vector_12">
<path d="M 0.0100445 2.33638C -0.0182646 2.04046 0.0155884 1.74189 0.109429 1.45982C 0.203269 1.17775 0.355024 0.918412 0.554966 0.698429C 0.754908 0.478447 0.998623 0.302681 1.27047 0.182406C 1.54232 0.0621302 1.83631 2.12805e-07 2.13358 2.12805e-07C 2.43085 2.12805e-07 2.72484 0.0621302 2.99669 0.182406C 3.26854 0.302681 3.51225 0.478447 3.71219 0.698429C 3.91213 0.918412 4.06389 1.17775 4.15773 1.45982C 4.25157 1.74189 4.28542 2.04046 4.25711 2.33638C 4.28596 2.6326 4.25251 2.93158 4.15892 3.21411C 4.06533 3.49663 3.91366 3.75645 3.71367 3.97686C 3.51368 4.19728 3.26978 4.37341 2.99766 4.49395C 2.72553 4.61448 2.4312 4.67675 2.13358 4.67675C 1.83596 4.67675 1.54162 4.61448 1.2695 4.49395C 0.997378 4.37341 0.753483 4.19728 0.55349 3.97686C 0.353497 3.75645 0.201831 3.49663 0.108239 3.21411C 0.0146465 2.93158 -0.0188018 2.6326 0.0100445 2.33638L 0.0100445 2.33638ZM 3.34304 2.33638C 3.34304 1.36031 2.90456 0.789509 2.13504 0.789509C 1.36258 0.789509 0.928044 1.36031 0.928044 2.33639C 0.928044 3.32028 1.36261 3.88668 2.13504 3.88668C 2.90458 3.88667 3.34306 3.31636 3.34306 2.33638L 3.34304 2.33638Z" transform="translate(41.6707 10.1081)" fill="white"/>
</g>
<g id="Vector_13">
<path d="M 5.0039 4.50293L 4.08203 4.50293L 3.15137 1.18652L 3.08106 1.18652L 2.1543 4.50293L 1.24121 4.50293L -1.17432e-06 4.04053e-07L 0.90137 4.04053e-07L 1.70801 3.436L 1.77442 3.436L 2.7002 4.04053e-07L 3.55274 4.04053e-07L 4.47852 3.436L 4.54883 3.436L 5.35156 4.04053e-07L 6.24023 4.04053e-07L 5.0039 4.50293Z" transform="translate(46.5694 10.1949)" fill="white"/>
</g>
<g id="Vector_14">
<path d="M 8.51318e-06 0.091353L 0.85547 0.091353L 0.85547 0.806682L 0.92188 0.806682C 1.03453 0.549762 1.22454 0.33439 1.46541 0.190584C 1.70628 0.0467778 1.98602 -0.0182965 2.26563 0.00443224C 2.48473 -0.0120407 2.70473 0.0209949 2.90933 0.101091C 3.11392 0.181187 3.29788 0.306291 3.44756 0.467135C 3.59724 0.627979 3.70882 0.820439 3.77402 1.03026C 3.83922 1.24008 3.85638 1.46188 3.82422 1.67923L 3.82422 4.59423L 2.93555 4.59423L 2.93555 1.90239C 2.93555 1.17876 2.6211 0.818893 1.96387 0.818893C 1.81511 0.811965 1.66661 0.837283 1.52856 0.893113C 1.3905 0.948943 1.26615 1.03396 1.16403 1.14235C 1.0619 1.25073 0.984418 1.37992 0.936891 1.52105C 0.889363 1.66218 0.872913 1.81192 0.888669 1.96L 0.888669 4.59428L 8.83789e-07 4.59428L 8.51318e-06 0.091353Z" transform="translate(53.8535 10.1036)" fill="white"/>
</g>
<g id="Vector_15">
<path d="M -9.26514e-07 2.74658e-07L 0.888671 2.74658e-07L 0.888671 6.26074L -9.26514e-07 6.26074L -9.26514e-07 2.74658e-07Z" transform="translate(59.0938 8.43713)" fill="white"/>
</g>
<g id="Vector_16">
<path d="M 0.0100189 2.33646C -0.0182685 2.04052 0.0156053 1.74194 0.109468 1.45986C 0.203331 1.17778 0.355112 0.91843 0.555074 0.698442C 0.755037 0.478454 0.99877 0.302686 1.27064 0.182409C 1.54251 0.0621314 1.83651 3.99286e-07 2.1338 3.99286e-07C 2.43109 3.99286e-07 2.7251 0.0621314 2.99696 0.182409C 3.26883 0.302686 3.51256 0.478454 3.71253 0.698442C 3.91249 0.91843 4.06427 1.17778 4.15813 1.45986C 4.25199 1.74194 4.28586 2.04052 4.25758 2.33646C 4.28639 2.6327 4.25291 2.93168 4.15929 3.21421C 4.06567 3.49673 3.91397 3.75654 3.71396 3.97695C 3.51395 4.19736 3.27004 4.37348 2.9979 4.49401C 2.72577 4.61454 2.43143 4.67681 2.1338 4.67681C 1.83617 4.67681 1.54183 4.61454 1.26969 4.49401C 0.997558 4.37348 0.753648 4.19736 0.553636 3.97695C 0.353624 3.75654 0.201934 3.49673 0.108312 3.21421C 0.0146908 2.93168 -0.0187909 2.6327 0.0100189 2.33646L 0.0100189 2.33646ZM 3.34302 2.33646C 3.34302 1.36039 2.90454 0.789593 2.13502 0.789593C 1.36256 0.789593 0.928022 1.36039 0.928022 2.33647C 0.928022 3.32036 1.36259 3.88676 2.13502 3.88676C 2.90455 3.88675 3.34303 3.31644 3.34303 2.33646L 3.34302 2.33646Z" transform="translate(61.2078 10.108)" fill="white"/>
</g>
<g id="Vector_17">
<path d="M 1.79443e-06 3.3164C 1.79443e-06 2.50585 0.603519 2.03857 1.6748 1.97216L 2.89453 1.90185L 2.89453 1.51318C 2.89453 1.03759 2.58008 0.76904 1.97266 0.76904C 1.47657 0.76904 1.13282 0.95117 1.03418 1.26953L 0.17383 1.26953C 0.26465 0.49609 0.992194 -3.07007e-07 2.01367 -3.07007e-07C 3.14258 -3.07007e-07 3.7793 0.562 3.7793 1.51318L 3.7793 4.58984L 2.92383 4.58984L 2.92383 3.95703L 2.85352 3.95703C 2.7108 4.18402 2.5104 4.36907 2.27278 4.49328C 2.03515 4.61749 1.76882 4.67641 1.50098 4.66403C 1.31195 4.68369 1.12089 4.66352 0.940126 4.60483C 0.759365 4.54613 0.592912 4.4502 0.451494 4.32323C 0.310077 4.19626 0.196839 4.04107 0.119074 3.86765C 0.0413089 3.69424 0.000746567 3.50645 1.79443e-06 3.3164L 1.79443e-06 3.3164ZM 2.89453 2.93163L 2.89453 2.55517L 1.79492 2.62548C 1.1748 2.66698 0.893549 2.87792 0.893549 3.27489C 0.893549 3.68016 1.24511 3.916 1.72855 3.916C 1.87019 3.93034 2.01327 3.91604 2.14928 3.87395C 2.28528 3.83186 2.41143 3.76284 2.52022 3.671C 2.629 3.57915 2.71821 3.46637 2.78251 3.33935C 2.84682 3.21233 2.88491 3.07367 2.89453 2.93163L 2.89453 2.93163Z" transform="translate(66.4009 10.108)" fill="white"/>
</g>
<g id="Vector_18">
<path d="M -2.09961e-07 4.00734C -2.09961e-07 2.58449 0.73145 1.68312 1.86914 1.68312C 2.15056 1.67015 2.42985 1.73756 2.67438 1.87745C 2.9189 2.01735 3.11855 2.22395 3.25 2.47312L 3.31641 2.47312L 3.31641 2.74658e-07L 4.20508 2.74658e-07L 4.20508 6.26074L 3.35352 6.26074L 3.35352 5.54931L 3.28321 5.54931C 3.1416 5.7968 2.93499 6.00084 2.68574 6.13932C 2.43649 6.2778 2.15409 6.34545 1.86915 6.33495C 0.723638 6.335 -2.09961e-07 5.43361 -2.09961e-07 4.00734ZM 0.917999 4.00734C 0.917999 4.96242 1.3682 5.53713 2.12113 5.53713C 2.87013 5.53713 3.33304 4.95413 3.33304 4.01125C 3.33304 3.07277 2.86527 2.48146 2.12113 2.48146C 1.37305 2.48146 0.917969 3.06007 0.917969 4.00734L 0.917999 4.00734Z" transform="translate(71.3482 8.43713)" fill="white"/>
</g>
<g id="Vector_19">
<path d="M 0.0100486 2.33638C -0.0182605 2.04046 0.0155886 1.74189 0.109429 1.45982C 0.203269 1.17775 0.355028 0.918412 0.55497 0.698429C 0.754912 0.478447 0.99862 0.302681 1.27047 0.182406C 1.54232 0.0621302 1.83631 2.12805e-07 2.13358 2.12805e-07C 2.43085 2.12805e-07 2.72484 0.0621302 2.99669 0.182406C 3.26854 0.302681 3.51225 0.478447 3.71219 0.698429C 3.91213 0.918412 4.06389 1.17775 4.15773 1.45982C 4.25157 1.74189 4.28543 2.04046 4.25712 2.33638C 4.28597 2.6326 4.25251 2.93158 4.15892 3.21411C 4.06533 3.49663 3.91366 3.75645 3.71367 3.97686C 3.51368 4.19728 3.26978 4.37341 2.99766 4.49395C 2.72554 4.61448 2.43121 4.67675 2.13358 4.67675C 1.83596 4.67675 1.54162 4.61448 1.2695 4.49395C 0.997378 4.37341 0.753483 4.19728 0.55349 3.97686C 0.353497 3.75645 0.201831 3.49663 0.108239 3.21411C 0.0146467 2.93158 -0.0187978 2.6326 0.0100486 2.33638L 0.0100486 2.33638ZM 3.34305 2.33638C 3.34305 1.36031 2.90457 0.789509 2.13505 0.789509C 1.36259 0.789509 0.928048 1.36031 0.928048 2.33639C 0.928048 3.32028 1.36262 3.88668 2.13505 3.88668C 2.90458 3.88667 3.34305 3.31636 3.34305 2.33638Z" transform="translate(79.22 10.1081)" fill="white"/>
</g>
<g id="Vector_20">
<path d="M -1.14746e-06 0.091353L 0.855468 0.091353L 0.855468 0.806682L 0.921881 0.806682C 1.03454 0.549762 1.22454 0.33439 1.46541 0.190584C 1.70628 0.0467778 1.98602 -0.0182965 2.26563 0.00443224C 2.48473 -0.0120407 2.70473 0.0209949 2.90932 0.101091C 3.11392 0.181187 3.29788 0.306291 3.44756 0.467135C 3.59725 0.627979 3.70882 0.820439 3.77402 1.03026C 3.83923 1.24008 3.85638 1.46188 3.82422 1.67923L 3.82422 4.59423L 2.93555 4.59423L 2.93555 1.90239C 2.93555 1.17876 2.6211 0.818893 1.96387 0.818893C 1.81512 0.811965 1.66661 0.837283 1.52856 0.893113C 1.3905 0.948943 1.26615 1.03396 1.16402 1.14235C 1.0619 1.25073 0.984416 1.37992 0.936889 1.52105C 0.889361 1.66218 0.872915 1.81192 0.888671 1.96L 0.888671 4.59428L -1.14746e-06 4.59428L -1.14746e-06 0.091353Z" transform="translate(84.6695 10.1036)" fill="white"/>
</g>
<g id="Vector_21">
<path d="M 1.60449 4.6875e-07L 1.60449 1.1416L 2.58008 1.1416L 2.58008 1.89014L 1.60449 1.89014L 1.60449 4.20557C 1.60449 4.67725 1.79883 4.88379 2.24121 4.88379C 2.35446 4.88343 2.46761 4.87658 2.58008 4.86328L 2.58008 5.60351C 2.42049 5.63206 2.25879 5.64725 2.09668 5.64892C 1.1084 5.64892 0.714841 5.30126 0.714841 4.4331L 0.714841 1.8901L -2.58057e-06 1.8901L -2.58057e-06 1.14156L 0.714841 1.14156L 0.714841 4.6875e-07L 1.60449 4.6875e-07Z" transform="translate(91.9107 9.07385)" fill="white"/>
</g>
<g id="Vector_22">
<path d="M 2.73193e-06 2.74658e-07L 0.880862 2.74658e-07L 0.880862 2.48145L 0.951167 2.48145C 1.0693 2.22213 1.26452 2.00554 1.51022 1.86119C 1.75592 1.71684 2.04014 1.65176 2.32417 1.67481C 2.54213 1.66295 2.76002 1.69934 2.9623 1.78138C 3.16458 1.86342 3.34626 1.9891 3.49438 2.14943C 3.6425 2.30977 3.75341 2.50082 3.81919 2.70896C 3.88498 2.91709 3.90401 3.13718 3.87495 3.35352L 3.87495 6.26075L 2.98539 6.26075L 2.98539 3.57275C 2.98539 2.85351 2.65039 2.48925 2.0225 2.48925C 1.86976 2.47672 1.71613 2.49772 1.57235 2.55077C 1.42858 2.60383 1.29813 2.68766 1.19013 2.79639C 1.08214 2.90513 0.999212 3.03615 0.947146 3.18029C 0.895081 3.32443 0.875138 3.4782 0.888713 3.63085L 0.888713 6.26073L 4.08789e-05 6.26073L 2.73193e-06 2.74658e-07Z" transform="translate(95.7046 8.43713)" fill="white"/>
</g>
<g id="Vector_23">
<path d="M 4.05046 3.3741C 3.92972 3.78563 3.66812 4.14162 3.31143 4.37977C 2.95474 4.61792 2.52567 4.72307 2.09928 4.67683C 1.80262 4.68466 1.5078 4.62784 1.2353 4.51031C 0.9628 4.39278 0.719138 4.21736 0.521228 3.99622C 0.323318 3.77508 0.175905 3.51353 0.0892138 3.2297C 0.00252232 2.94588 -0.0213642 2.6466 0.0192064 2.35262C -0.0202985 2.05773 0.00400858 1.7578 0.0904955 1.47313C 0.176982 1.18845 0.323629 0.925686 0.520496 0.702612C 0.717363 0.479539 0.959859 0.301367 1.23157 0.18016C 1.50328 0.0589523 1.79786 -0.00246132 2.09537 7.56723e-05C 3.3483 7.56723e-05 4.10416 0.856075 4.10416 2.27008L 4.10416 2.58017L 0.924472 2.58017L 0.924472 2.62997C 0.910557 2.79521 0.931331 2.96154 0.985454 3.11829C 1.03958 3.27504 1.12586 3.41875 1.23877 3.54021C 1.35167 3.66166 1.48872 3.75818 1.64111 3.82358C 1.7935 3.88898 1.95787 3.92181 2.12369 3.91997C 2.33627 3.94548 2.55163 3.90721 2.74239 3.81C 2.93315 3.71279 3.09069 3.56105 3.19498 3.37407L 4.05046 3.3741ZM 0.924449 1.92293L 3.19886 1.92293C 3.21007 1.7718 3.18953 1.62 3.13857 1.47728C 3.08761 1.33456 3.00737 1.20408 2.90298 1.09422C 2.79859 0.984367 2.67238 0.897562 2.53245 0.839386C 2.39252 0.781211 2.24197 0.752952 2.09047 0.756425C 1.93677 0.754494 1.78423 0.783352 1.64186 0.841297C 1.49949 0.899241 1.37017 0.985101 1.2615 1.09381C 1.15283 1.20253 1.06703 1.33189 1.00915 1.47429C 0.951268 1.61669 0.922474 1.76923 0.924472 1.92293L 0.924449 1.92293Z" transform="translate(100.711 10.108)" fill="white"/>
</g>
</g>
</g>
</g>
</g>
</g>
</svg>

