<svg width="135" height="40" viewBox="0 0 135 40" version="1.1" xmlns="http://www.w3.org/2000/svg" xmlns:xlink="http://www.w3.org/1999/xlink">
<g id="Canvas" fill="none">
<g id="google_play">
<g id="Vector">
<path d="M 130 0L 5 0C 2.23858 0 0 2.23858 0 5L 0 35C 0 37.7614 2.23858 40 5 40L 130 40C 132.761 40 135 37.7614 135 35L 135 5C 135 2.23858 132.761 0 130 0Z" fill="black"/>
</g>
<g id="Vector_2">
<path d="M 130 0.8C 131.114 0.8 132.182 1.2425 132.97 2.03015C 133.758 2.8178 134.2 3.88609 134.2 5L 134.2 35C 134.2 36.1139 133.758 37.1822 132.97 37.9698C 132.182 38.7575 131.114 39.2 130 39.2L 5 39.2C 3.88609 39.2 2.8178 38.7575 2.03015 37.9698C 1.2425 37.1822 0.8 36.1139 0.8 35L 0.8 5C 0.8 3.88609 1.2425 2.8178 2.03015 2.03015C 2.8178 1.2425 3.88609 0.8 5 0.8L 130 0.8ZM 130 0L 5 0C 3.67392 0 2.40215 0.526784 1.46447 1.46447C 0.526784 2.40215 0 3.67392 0 5L 0 35C 0 36.3261 0.526784 37.5979 1.46447 38.5355C 2.40215 39.4732 3.67392 40 5 40L 130 40C 131.326 40 132.598 39.4732 133.536 38.5355C 134.473 37.5979 135 36.3261 135 35L 135 5C 135 3.67392 134.473 2.40215 133.536 1.46447C 132.598 0.526784 131.326 0 130 0Z" fill="#A6A6A6"/>
</g>
<g id="Vector_3">
<path d="M 6.07535 3.38597C 6.09235 3.75276 6.03463 4.11917 5.90571 4.46298C 5.77678 4.80678 5.57933 5.1208 5.32535 5.38597C 5.04176 5.68056 4.69926 5.91208 4.3202 6.06543C 3.94113 6.21878 3.534 6.29052 3.12535 6.27597C 2.50533 6.27111 1.90054 6.08339 1.38674 5.73632C 0.872951 5.38924 0.473012 4.89826 0.237041 4.32488C 0.00106974 3.7515 -0.0604368 3.12124 0.0602256 2.51306C 0.180888 1.90487 0.478351 1.34583 0.915347 0.905967C 1.20256 0.61275 1.54688 0.381589 1.92702 0.226783C 2.30715 0.071978 2.71501 -0.00317733 3.12535 0.00596764C 3.54811 0.00455908 3.96669 0.089636 4.35535 0.255968C 4.7172 0.401921 5.03933 0.631524 5.29535 0.925968L 4.76535 1.45597C 4.56576 1.21856 4.31369 1.03083 4.02906 0.907604C 3.74443 0.78438 3.43505 0.729044 3.12535 0.745967C 2.81299 0.744435 2.50354 0.805994 2.21555 0.926956C 1.92756 1.04792 1.66697 1.22579 1.44939 1.44991C 1.23181 1.67402 1.06172 1.93977 0.949336 2.23121C 0.83695 2.52265 0.784573 2.83379 0.795348 3.14597C 0.788796 3.6121 0.920444 4.06973 1.17368 4.46114C 1.42692 4.85254 1.79041 5.16017 2.21828 5.34523C 2.64616 5.53028 3.11926 5.58447 3.5779 5.50096C 4.03653 5.41744 4.46017 5.19997 4.79535 4.87597C 5.10306 4.5425 5.28053 4.10947 5.29535 3.65597L 3.12535 3.65597L 3.12535 2.93597L 6.03535 2.93597C 6.06202 3.08448 6.07541 3.23508 6.07535 3.38597L 6.07535 3.38597ZM 10.6553 0.885967L 7.95535 0.885967L 7.95535 2.78597L 10.4153 2.78597L 10.4153 3.50597L 7.95535 3.50597L 7.95535 5.40597L 10.6553 5.40597L 10.6553 6.14597L 7.15535 6.14597L 7.15535 0.145967L 10.6553 0.145967L 10.6553 0.885967ZM 13.9353 6.14597L 13.1654 6.14597L 13.1654 0.885967L 11.4854 0.885967L 11.4854 0.145967L 15.6553 0.145967L 15.6553 0.885967L 13.9353 0.885967L 13.9353 6.14597ZM 18.5954 6.14597L 18.5954 0.145967L 19.3653 0.145967L 19.3653 6.14597L 18.5954 6.14597ZM 22.7853 6.14597L 22.0154 6.14597L 22.0154 0.885967L 20.3354 0.885967L 20.3354 0.145967L 24.4554 0.145967L 24.4554 0.885967L 22.7853 0.885967L 22.7853 6.14597ZM 32.2654 5.36597C 31.6807 5.94731 30.8898 6.27364 30.0654 6.27364C 29.2409 6.27364 28.45 5.94731 27.8653 5.36597C 27.2971 4.76449 26.9806 3.96841 26.9806 3.14097C 26.9806 2.31353 27.2971 1.51744 27.8653 0.915967C 28.1535 0.625711 28.4962 0.395342 28.8738 0.238138C 29.2514 0.0809332 29.6564 -4.50305e-07 30.0654 -4.50305e-07C 30.4744 -4.50305e-07 30.8793 0.0809332 31.2569 0.238138C 31.6345 0.395342 31.9772 0.625711 32.2654 0.915967C 32.8358 1.5163 33.1539 2.31281 33.1539 3.14097C 33.1539 3.96912 32.8358 4.76564 32.2654 5.36597ZM 28.4353 4.86597C 28.8683 5.29709 29.4544 5.53914 30.0654 5.53914C 30.6763 5.53914 31.2624 5.29709 31.6954 4.86597C 32.1226 4.39499 32.3592 3.78186 32.3592 3.14597C 32.3592 2.51008 32.1226 1.89695 31.6954 1.42597C 31.2624 0.994845 30.6763 0.752794 30.0654 0.752794C 29.4544 0.752794 28.8683 0.994845 28.4353 1.42597C 28.0081 1.89695 27.7715 2.51008 27.7715 3.14597C 27.7715 3.78186 28.0081 4.39499 28.4353 4.86597L 28.4353 4.86597ZM 34.2354 6.14597L 34.2354 0.145967L 35.1753 0.145967L 38.0954 4.81597L 38.0954 0.145967L 38.8653 0.145967L 38.8653 6.14597L 38.0654 6.14597L 35.0154 1.25597L 35.0154 6.14597L 34.2354 6.14597Z" transform="translate(41.3447 6.854)" fill="white"/>
<path d="M 6.07535 3.38597C 6.09235 3.75276 6.03463 4.11917 5.90571 4.46298C 5.77678 4.80678 5.57933 5.1208 5.32535 5.38597C 5.04176 5.68056 4.69926 5.91208 4.3202 6.06543C 3.94113 6.21878 3.534 6.29052 3.12535 6.27597C 2.50533 6.27111 1.90054 6.08339 1.38674 5.73632C 0.872951 5.38924 0.473012 4.89826 0.237041 4.32488C 0.00106974 3.7515 -0.0604368 3.12124 0.0602256 2.51306C 0.180888 1.90487 0.478351 1.34583 0.915347 0.905967C 1.20256 0.61275 1.54688 0.381589 1.92702 0.226783C 2.30715 0.071978 2.71501 -0.00317733 3.12535 0.00596764C 3.54811 0.00455908 3.96669 0.089636 4.35535 0.255968C 4.7172 0.401921 5.03933 0.631524 5.29535 0.925968L 4.76535 1.45597C 4.56576 1.21856 4.31369 1.03083 4.02906 0.907604C 3.74443 0.78438 3.43505 0.729044 3.12535 0.745967C 2.81299 0.744435 2.50354 0.805994 2.21555 0.926956C 1.92756 1.04792 1.66697 1.22579 1.44939 1.44991C 1.23181 1.67402 1.06172 1.93977 0.949336 2.23121C 0.83695 2.52265 0.784573 2.83379 0.795348 3.14597C 0.788796 3.6121 0.920444 4.06973 1.17368 4.46114C 1.42692 4.85254 1.79041 5.16017 2.21828 5.34523C 2.64616 5.53028 3.11926 5.58447 3.5779 5.50096C 4.03653 5.41744 4.46017 5.19997 4.79535 4.87597C 5.10306 4.5425 5.28053 4.10947 5.29535 3.65597L 3.12535 3.65597L 3.12535 2.93597L 6.03535 2.93597C 6.06202 3.08448 6.07541 3.23508 6.07535 3.38597L 6.07535 3.38597ZM 10.6553 0.885967L 7.95535 0.885967L 7.95535 2.78597L 10.4153 2.78597L 10.4153 3.50597L 7.95535 3.50597L 7.95535 5.40597L 10.6553 5.40597L 10.6553 6.14597L 7.15535 6.14597L 7.15535 0.145967L 10.6553 0.145967L 10.6553 0.885967ZM 13.9353 6.14597L 13.1654 6.14597L 13.1654 0.885967L 11.4854 0.885967L 11.4854 0.145967L 15.6553 0.145967L 15.6553 0.885967L 13.9353 0.885967L 13.9353 6.14597ZM 18.5954 6.14597L 18.5954 0.145967L 19.3653 0.145967L 19.3653 6.14597L 18.5954 6.14597ZM 22.7853 6.14597L 22.0154 6.14597L 22.0154 0.885967L 20.3354 0.885967L 20.3354 0.145967L 24.4554 0.145967L 24.4554 0.885967L 22.7853 0.885967L 22.7853 6.14597ZM 32.2654 5.36597C 31.6807 5.94731 30.8898 6.27364 30.0654 6.27364C 29.2409 6.27364 28.45 5.94731 27.8653 5.36597C 27.2971 4.76449 26.9806 3.96841 26.9806 3.14097C 26.9806 2.31353 27.2971 1.51744 27.8653 0.915967C 28.1535 0.625711 28.4962 0.395342 28.8738 0.238138C 29.2514 0.0809332 29.6564 -4.50305e-07 30.0654 -4.50305e-07C 30.4744 -4.50305e-07 30.8793 0.0809332 31.2569 0.238138C 31.6345 0.395342 31.9772 0.625711 32.2654 0.915967C 32.8358 1.5163 33.1539 2.31281 33.1539 3.14097C 33.1539 3.96912 32.8358 4.76564 32.2654 5.36597ZM 28.4353 4.86597C 28.8683 5.29709 29.4544 5.53914 30.0654 5.53914C 30.6763 5.53914 31.2624 5.29709 31.6954 4.86597C 32.1226 4.39499 32.3592 3.78186 32.3592 3.14597C 32.3592 2.51008 32.1226 1.89695 31.6954 1.42597C 31.2624 0.994845 30.6763 0.752794 30.0654 0.752794C 29.4544 0.752794 28.8683 0.994845 28.4353 1.42597C 28.0081 1.89695 27.7715 2.51008 27.7715 3.14597C 27.7715 3.78186 28.0081 4.39499 28.4353 4.86597L 28.4353 4.86597ZM 34.2354 6.14597L 34.2354 0.145967L 35.1753 0.145967L 38.0954 4.81597L 38.0954 0.145967L 38.8653 0.145967L 38.8653 6.14597L 38.0654 6.14597L 35.0154 1.25597L 35.0154 6.14597L 34.2354 6.14597Z" stroke-width="0.2" stroke-miterlimit="10" transform="translate(41.3447 6.854)" stroke="white"/>
</g>
<g id="Vector_4">
<path d="M 27.267 4.755C 26.4273 4.75895 25.6076 5.01156 24.9114 5.48096C 24.2151 5.95035 23.6735 6.61548 23.3548 7.39241C 23.0362 8.16933 22.9549 9.02323 23.1212 9.84633C 23.2874 10.6694 23.6937 11.4248 24.2889 12.0172C 24.8841 12.6096 25.6414 13.0124 26.4652 13.1747C 27.2891 13.3371 28.1426 13.2518 28.918 12.9295C 29.6935 12.6073 30.356 12.0626 30.8222 11.3641C 31.2883 10.6656 31.537 9.84472 31.5371 9.005C 31.5452 8.44294 31.4402 7.88498 31.2282 7.36434C 31.0163 6.84371 30.7017 6.37105 30.3033 5.97451C 29.9049 5.57796 29.4308 5.26563 28.9091 5.05612C 28.3875 4.84662 27.8291 4.74421 27.267 4.755L 27.267 4.755ZM 27.267 11.585C 26.7506 11.6211 26.2353 11.501 25.788 11.2404C 25.3407 10.9797 24.9822 10.5906 24.7591 10.1234C 24.5359 9.65632 24.4584 9.13288 24.5367 8.62115C 24.615 8.10942 24.8454 7.63308 25.198 7.25404C 25.5506 6.875 26.0091 6.6108 26.5138 6.49578C 27.0186 6.38075 27.5462 6.42023 28.0282 6.60908C 28.5102 6.79793 28.9243 7.12742 29.2166 7.55471C 29.5088 7.98199 29.6658 8.48732 29.6671 9.005C 29.6832 9.33301 29.6334 9.66093 29.5208 9.96942C 29.4081 10.2779 29.2349 10.5607 29.0112 10.8012C 28.7875 11.0416 28.5179 11.2349 28.2184 11.3695C 27.9188 11.5041 27.5954 11.5774 27.267 11.585ZM 17.9571 4.755C 17.1169 4.75698 16.2962 5.00792 15.5986 5.47611C 14.901 5.94431 14.3578 6.60875 14.0377 7.38551C 13.7176 8.16227 13.6348 9.01649 13.7999 9.84025C 13.965 10.664 14.3706 11.4203 14.9654 12.0137C 15.5602 12.6071 16.3174 13.0109 17.1416 13.1741C 17.9657 13.3372 18.8198 13.2525 19.5958 12.9305C 20.3718 12.6086 21.0349 12.0638 21.5015 11.3651C 21.968 10.6664 22.217 9.84514 22.217 9.005C 22.2252 8.44294 22.1202 7.88498 21.9082 7.36434C 21.6963 6.84371 21.3817 6.37105 20.9833 5.97451C 20.5849 5.57796 20.1108 5.26563 19.5891 5.05612C 19.0675 4.84662 18.5091 4.74421 17.9471 4.755L 17.9571 4.755ZM 17.9571 11.585C 17.4404 11.6232 16.9242 11.5049 16.4757 11.2456C 16.0272 10.9862 15.6671 10.5979 15.4424 10.1311C 15.2177 9.66429 15.1387 9.14065 15.2157 8.62833C 15.2928 8.11601 15.5223 7.63876 15.8744 7.25869C 16.2264 6.87863 16.6848 6.61336 17.1897 6.49743C 17.6947 6.3815 18.2228 6.42027 18.7054 6.60869C 19.188 6.79712 19.6027 7.12647 19.8955 7.55387C 20.1883 7.98127 20.3456 8.48692 20.3471 9.005C 20.3632 9.33301 20.3134 9.66093 20.2008 9.96942C 20.0881 10.2779 19.9149 10.5607 19.6912 10.8012C 19.4675 11.0416 19.1979 11.2349 18.8984 11.3695C 18.5988 11.5041 18.2754 11.5774 17.9471 11.585L 17.9571 11.585ZM 6.86705 6.065L 6.86705 7.865L 11.1871 7.865C 11.1193 8.7128 10.7669 9.5128 10.1871 10.135C 9.75485 10.5752 9.23528 10.9201 8.66176 11.1475C 8.08825 11.3748 7.47349 11.4796 6.85705 11.455C 5.58401 11.455 4.36311 10.9493 3.46294 10.0491C 2.56276 9.14894 2.05705 7.92804 2.05705 6.655C 2.05705 5.38196 2.56276 4.16106 3.46294 3.26089C 4.36311 2.36071 5.58401 1.855 6.85705 1.855C 8.07485 1.83514 9.25081 2.29905 10.1271 3.145L 11.3971 1.875C 10.8055 1.27603 10.0998 0.801883 9.32166 0.480668C 8.54353 0.159453 7.70884 -0.00229839 6.86705 0.00500027C 5.97805 -0.0295976 5.09121 0.115626 4.25967 0.43197C 3.42814 0.748314 2.66902 1.22927 2.02781 1.84601C 1.3866 2.46275 0.876485 3.20259 0.528044 4.0212C 0.179602 4.8398 -1.72845e-06 5.72032 -1.72845e-06 6.61C -1.72845e-06 7.49968 0.179602 8.3802 0.528044 9.1988C 0.876485 10.0174 1.3866 10.7572 2.02781 11.374C 2.66902 11.9907 3.42814 12.4717 4.25967 12.788C 5.09121 13.1044 5.97805 13.2496 6.86705 13.215C 7.723 13.2537 8.57731 13.1086 9.37249 12.7895C 10.1677 12.4704 10.8853 11.9846 11.477 11.365C 12.5247 10.2139 13.0841 8.70076 13.0371 7.145C 13.0403 6.76599 13.0068 6.38755 12.9371 6.015L 6.86705 6.065ZM 52.1771 7.465C 51.9163 6.69774 51.4286 6.02778 50.7786 5.54385C 50.1285 5.05991 49.3469 4.78482 48.5371 4.755C 47.9901 4.75393 47.4486 4.86507 46.9463 5.08153C 46.4439 5.298 45.9913 5.61521 45.6164 6.01353C 45.2415 6.41186 44.9523 6.88285 44.7667 7.39738C 44.581 7.91192 44.5029 8.45907 44.5371 9.005C 44.5249 9.56391 44.6255 10.1195 44.8329 10.6387C 45.0403 11.1578 45.3502 11.6299 45.7441 12.0266C 46.138 12.4233 46.6078 12.7365 47.1255 12.9476C 47.6432 13.1586 48.1981 13.2632 48.757 13.255C 49.4566 13.2588 50.1461 13.089 50.7639 12.7609C 51.3817 12.4328 51.9084 11.9566 52.2971 11.375L 50.8471 10.375C 50.6306 10.7358 50.3243 11.0342 49.9579 11.241C 49.5915 11.4479 49.1778 11.5561 48.757 11.555C 48.3239 11.5715 47.8958 11.4573 47.5284 11.2272C 47.161 10.9972 46.8713 10.6619 46.6971 10.265L 52.3871 7.915L 52.1771 7.465ZM 46.3771 8.885C 46.3568 8.57569 46.3984 8.26545 46.4996 7.97244C 46.6007 7.67943 46.7593 7.40955 46.966 7.17859C 47.1728 6.94764 47.4235 6.76026 47.7036 6.62742C 47.9836 6.49459 48.2874 6.41897 48.5971 6.405C 48.9196 6.38375 49.2413 6.45771 49.5222 6.61771C 49.8031 6.77771 50.0308 7.0167 50.1771 7.305L 46.3771 8.885ZM 41.757 13.005L 43.6271 13.005L 43.6271 0.505L 41.757 0.505L 41.757 13.005ZM 38.6971 5.705L 38.6271 5.705C 38.3452 5.3899 38 5.13792 37.6139 4.96558C 37.2279 4.79325 36.8098 4.70445 36.3871 4.705C 35.2942 4.75799 34.2637 5.22942 33.509 6.02158C 32.7543 6.81374 32.3334 7.8659 32.3334 8.96C 32.3334 10.0541 32.7543 11.1063 33.509 11.8984C 34.2637 12.6906 35.2942 13.162 36.3871 13.215C 36.8108 13.2221 37.231 13.1363 37.618 12.9635C 38.005 12.7907 38.3494 12.5352 38.6271 12.215L 38.687 12.215L 38.687 12.825C 38.687 14.455 37.8171 15.325 36.4171 15.325C 35.9508 15.3141 35.4983 15.1647 35.1172 14.8958C 34.7361 14.6269 34.4436 14.2506 34.2771 13.815L 32.647 14.495C 32.9539 15.2414 33.4767 15.879 34.1484 16.3263C 34.8201 16.7735 35.6101 17.0098 36.4171 17.005C 38.6071 17.005 40.4171 15.715 40.4171 12.575L 40.4171 5.005L 38.6971 5.005L 38.6971 5.705ZM 36.5571 11.585C 35.912 11.5282 35.3116 11.2317 34.8743 10.7542C 34.437 10.2766 34.1944 9.65255 34.1944 9.005C 34.1944 8.35745 34.437 7.73339 34.8743 7.25583C 35.3116 6.77827 35.912 6.48185 36.5571 6.425C 36.8769 6.44141 37.1902 6.52167 37.4785 6.66104C 37.7668 6.8004 38.0244 6.99606 38.2359 7.2365C 38.4474 7.47693 38.6087 7.75726 38.7103 8.06099C 38.8118 8.36471 38.8515 8.68569 38.827 9.005C 38.8543 9.32569 38.8163 9.64859 38.7152 9.95415C 38.6141 10.2597 38.4521 10.5416 38.239 10.7828C 38.0259 11.024 37.7661 11.2194 37.4752 11.3573C 37.1844 11.4952 36.8687 11.5726 36.5471 11.585L 36.5571 11.585ZM 60.937 0.505L 56.467 0.505L 56.467 13.005L 58.3371 13.005L 58.3371 8.265L 60.9471 8.265C 61.48 8.30329 62.0151 8.23137 62.5191 8.05373C 63.023 7.87609 63.4849 7.59653 63.8761 7.23249C 64.2672 6.86846 64.5791 6.42774 64.7924 5.93783C 65.0057 5.44793 65.1158 4.91933 65.1158 4.385C 65.1158 3.85067 65.0057 3.32208 64.7924 2.83217C 64.5791 2.34226 64.2672 1.90154 63.8761 1.53751C 63.4849 1.17347 63.023 0.893915 62.5191 0.716273C 62.0151 0.538632 61.48 0.466712 60.9471 0.505L 60.937 0.505ZM 60.937 6.505L 58.327 6.505L 58.327 2.245L 60.9771 2.245C 61.5459 2.245 62.0915 2.47099 62.4938 2.87326C 62.8961 3.27552 63.1221 3.82111 63.1221 4.39C 63.1221 4.95889 62.8961 5.50448 62.4938 5.90674C 62.0915 6.30901 61.5459 6.535 60.9771 6.535L 60.937 6.505ZM 72.467 4.705C 71.7863 4.66431 71.1084 4.8234 70.5168 5.16272C 69.9252 5.50205 69.4457 6.00682 69.1371 6.615L 70.7971 7.305C 70.9607 7.00335 71.2086 6.75579 71.5104 6.59245C 71.8122 6.42911 72.155 6.35703 72.4971 6.385C 72.7344 6.35728 72.975 6.3771 73.2046 6.44332C 73.4343 6.50955 73.6484 6.62084 73.8346 6.77071C 74.0208 6.92058 74.1752 7.10602 74.289 7.31622C 74.4027 7.52642 74.4734 7.75717 74.4971 7.995L 74.4971 8.125C 73.8964 7.807 73.2266 7.64212 72.5471 7.645C 70.7571 7.645 68.9471 8.645 68.9471 10.455C 68.9647 10.8409 69.0596 11.2194 69.226 11.5681C 69.3925 11.9167 69.6272 12.2284 69.9162 12.4848C 70.2052 12.7412 70.5427 12.937 70.9087 13.0607C 71.2747 13.1844 71.6618 13.2335 72.0471 13.205C 72.518 13.2388 72.9893 13.1452 73.4116 12.9341C 73.8339 12.723 74.1916 12.402 74.4471 12.005L 74.507 12.005L 74.507 13.005L 76.3071 13.005L 76.3071 8.195C 76.3071 6.005 74.6471 4.735 72.5171 4.735L 72.467 4.705ZM 72.2371 11.555C 71.6271 11.555 70.7771 11.245 70.7771 10.495C 70.7771 9.495 71.8371 9.165 72.7771 9.165C 73.3711 9.15034 73.9582 9.29539 74.4771 9.585C 74.4145 10.1264 74.1584 10.627 73.756 10.9945C 73.3536 11.362 72.8319 11.5717 72.2871 11.585L 72.2371 11.555ZM 82.8671 5.005L 80.7271 10.425L 80.667 10.425L 78.4471 5.005L 76.4471 5.005L 79.777 12.585L 77.8771 16.795L 79.827 16.795L 84.9471 5.005L 82.8671 5.005ZM 66.0571 13.005L 67.9271 13.005L 67.9271 0.505L 66.0571 0.505L 66.0571 13.005Z" transform="translate(40.873 16.995)" fill="white"/>
</g>
<g id="Vector_5">
<path d="M 0.463583 0.0700009C 0.137648 0.461109 -0.0268646 0.961795 0.00358175 1.47L 0.00358175 23.59C -0.0268646 24.0982 0.137648 24.5989 0.463583 24.99L 0.533582 25.06L 12.9236 12.68L 12.9236 12.39L 0.533582 -6.86646e-07L 0.463583 0.0700009Z" transform="translate(9.97641 7.46997)" fill="url(#paint0_linear)"/>
</g>
<g id="Vector_6">
<path d="M 4.1 8.56L 1.52588e-06 4.43L 1.52588e-06 4.14L 4.1 -6.86646e-07L 4.19 0.0500005L 9.1 2.84C 10.5 3.63 10.5 4.93 9.1 5.73L 4.21 8.51L 4.1 8.56Z" transform="translate(22.9 15.72)" fill="url(#paint1_linear)"/>
</g>
<g id="Vector_7">
<path d="M 16.68 4.22L 12.46 0L 5.34058e-07 12.46C 0.285363 12.7109 0.649391 12.8541 1.02918 12.8651C 1.40897 12.876 1.78065 12.754 2.08 12.52L 16.69 4.22" transform="translate(10.44 20)" fill="url(#paint2_linear)"/>
</g>
<g id="Vector_8">
<path d="M 16.69 8.64577L 2.08 0.345771C 1.78065 0.111785 1.40897 -0.0102774 1.02918 0.000677974C 0.649393 0.0116334 0.285363 0.154919 3.05176e-07 0.405772L 12.47 12.8658L 16.69 8.64577Z" transform="translate(10.43 7.13422)" fill="url(#paint3_linear)"/>
</g>
<g id="Vector_9" opacity="0.2">
<path d="M 16.56 1.06812e-06L 2.07 8.25C 1.78129 8.46586 1.43048 8.5825 1.07 8.5825C 0.709517 8.5825 0.35871 8.46586 0.0700002 8.25L 5.34058e-07 8.32L 0.0700002 8.39C 0.358056 8.6074 0.709113 8.72501 1.07 8.72501C 1.43089 8.72501 1.78194 8.6074 2.07 8.39L 16.68 0.0900012L 16.56 1.06812e-06Z" transform="translate(10.44 24.13)" fill="black"/>
</g>
<g id="Vector_10" opacity="0.12">
<path d="M 0.463583 12.32C 0.137648 11.9289 -0.0268646 11.4282 0.00358175 10.92L 0.00358175 11.07C -0.0268646 11.5782 0.137648 12.0789 0.463583 12.47L 0.533582 12.4L 0.463583 12.32ZM 22.0236 1.3L 17.0236 4.13L 17.1136 4.22L 22.0236 1.44C 22.3022 1.30913 22.5413 1.10708 22.7169 0.854256C 22.8925 0.60143 22.9983 0.306767 23.0236 0C 22.9673 0.278707 22.848 0.540812 22.6746 0.766174C 22.5013 0.991536 22.2785 1.17415 22.0236 1.3Z" transform="translate(9.97641 20)" fill="black"/>
</g>
<g id="Vector_11" opacity="0.25">
<path d="M 2.54 0.473942L 22.03 11.5539C 22.285 11.6798 22.5077 11.8624 22.681 12.0878C 22.8544 12.3131 22.9738 12.5752 23.03 12.8539C 23.0047 12.5472 22.8989 12.2525 22.7233 11.9997C 22.5478 11.7469 22.3086 11.5448 22.03 11.4139L 2.54 0.333941C 1.14 -0.456059 -6.86646e-07 0.203942 -6.86646e-07 1.80394L -6.86646e-07 1.95394C 0.0299993 0.343942 1.15 -0.316058 2.54 0.473942L 2.54 0.473942Z" transform="translate(9.97 7.14606)" fill="white"/>
</g>
</g>
</g>
<defs>

<linearGradient id="paint0_linear" x2="1" gradientUnits="userSpaceOnUse" gradientTransform="matrix(-16.78 16.78 16.78 16.78 3.43358 -7.15)">
<stop stop-color="#00A0FF"/>
<stop offset="0.01" stop-color="#00A1FF"/>
<stop offset="0.26" stop-color="#00BEFF"/>
<stop offset="0.51" stop-color="#00D2FF"/>
<stop offset="0.76" stop-color="#00DFFF"/>
<stop offset="1" stop-color="#00E3FF"/>
</linearGradient>
<linearGradient id="paint1_linear" x2="1" gradientUnits="userSpaceOnUse" gradientTransform="translate(10.93 -7.815) scale(-24.19 24.19)">
<stop stop-color="#FFE000"/>
<stop offset="0.41" stop-color="#FFBD00"/>
<stop offset="0.78" stop-color="#FFA500"/>
<stop offset="1" stop-color="#FF9C00"/>
</linearGradient>
<linearGradient id="paint2_linear" x2="1" gradientUnits="userSpaceOnUse" gradientTransform="matrix(-22.76 22.75 22.75 22.76 3.015 -9.08)">
<stop stop-color="#FF3A44"/>
<stop offset="1" stop-color="#C31162"/>
</linearGradient>
<linearGradient id="paint3_linear" x2="1" gradientUnits="userSpaceOnUse" gradientTransform="matrix(10.16 10.16 10.16 -10.16 -8.21 -1.87423)">
<stop stop-color="#32A071"/>
<stop offset="0.07" stop-color="#2DA771"/>
<stop offset="0.48" stop-color="#15CF74"/>
<stop offset="0.8" stop-color="#06E775"/>
<stop offset="1" stop-color="#00F076"/>
</linearGradient>

</defs>
</svg>

