<?xml version="1.0" standalone="no"?>
<!DOCTYPE svg PUBLIC "-//W3C//DTD SVG 20010904//EN"
 "http://www.w3.org/TR/2001/REC-SVG-20010904/DTD/svg10.dtd">
<svg version="1.0" xmlns="http://www.w3.org/2000/svg"
 width="1024.000000pt" height="1024.000000pt" viewBox="0 0 1024.000000 1024.000000"
 preserveAspectRatio="xMidYMid meet">
<metadata>
Created by potrace 1.11, written by Peter Selinger 2001-2013
</metadata>
<g transform="translate(0.000000,1024.000000) scale(0.100000,-0.100000)"
fill="#000000" stroke="none">
<path d="M3560 9315 l0 -135 -140 0 -140 0 0 -715 0 -715 -140 0 -140 0 0
-560 0 -560 140 0 140 0 0 -135 0 -135 140 0 140 0 0 -150 0 -150 -140 0 -140
0 0 -140 0 -140 -140 0 -140 0 0 -135 0 -135 -145 0 -145 0 0 -425 0 -425
-135 0 -135 0 0 -810 0 -810 -215 0 -215 0 0 165 0 165 -505 0 -505 0 0 85 0
85 -250 0 -250 0 0 85 0 85 -85 0 -85 0 0 80 0 80 -165 0 -165 0 0 -1335 0
-1335 165 0 165 0 0 85 0 85 255 0 255 0 0 80 0 80 415 0 415 0 0 170 0 170
2070 0 c1373 0 2070 -3 2070 -10 0 -6 -53 -10 -140 -10 l-140 0 0 -145 0 -145
-145 0 -145 0 0 -145 0 -145 -135 0 -135 0 0 -135 0 -135 -140 0 -140 0 0
-140 0 -140 -285 0 -285 0 0 -150 0 -150 -140 0 -140 0 0 -135 0 -135 285 0
285 0 0 135 0 135 280 0 280 0 0 150 0 150 135 0 135 0 0 140 0 140 285 0 285
0 0 135 0 135 140 0 140 0 0 145 0 145 145 0 145 0 0 155 0 155 835 0 835 0 0
165 0 165 665 0 665 0 0 170 0 170 335 0 335 0 0 80 0 80 85 0 85 0 0 255 0
255 -250 0 -250 0 0 -85 0 -85 -1250 0 -1250 0 0 390 0 390 140 0 140 0 0 695
0 695 -140 0 -140 0 0 285 0 285 -140 0 -140 0 0 140 0 140 -145 0 -145 0 0
150 0 150 145 0 145 0 0 695 0 695 -145 0 -145 0 0 565 0 565 -135 0 -135 0 0
150 0 150 -145 0 -145 0 0 135 0 135 -140 0 -140 0 0 -135 0 -135 -140 0 -140
0 0 -150 0 -150 -145 0 -145 0 0 -140 0 -140 -415 0 -415 0 0 140 0 140 -145
0 -145 0 0 150 0 150 -140 0 -140 0 0 135 0 135 -140 0 -140 0 0 -135z m2250
-850 l0 -135 140 0 140 0 0 -290 0 -290 145 0 145 0 0 -270 0 -270 -145 0
-145 0 0 -150 0 -150 -280 0 -280 0 0 -140 0 -140 -280 0 -280 0 0 140 0 140
-140 0 -140 0 0 565 0 565 275 0 275 0 0 145 0 145 145 0 145 0 0 135 0 135
140 0 140 0 0 -135z m840 -2970 l0 -285 145 0 145 0 0 -695 0 -695 -705 0
-705 0 0 -140 0 -140 -145 0 -145 0 0 140 0 140 -275 0 -275 0 0 135 0 135
-140 0 -140 0 0 285 0 285 140 0 140 0 0 275 0 275 275 0 275 0 0 150 0 150
285 0 285 0 0 135 0 135 420 0 420 0 0 -285z"/>
</g>
</svg>
